<?xml version="1.0" encoding="UTF-8"?>
<svg version="1.1" viewBox="0 0 744.09 1052.4" xmlns="http://www.w3.org/2000/svg">
 <g>
  <path d="m371.78 293.66l-1.0938 1.9062 1.6875 0.4375 1.5938 1.3125-0.4375 3.3438-0.1875 1.5s-0.0602 0.3591 0 0.53125c0.0567 0.16194 0.28125 0.34375 0.28125 0.34375l2.1562 2.0625v10.188l0.96875 0.21875 0.5625 6.6875h1.4688v2.4062c-2.1218 0.46756-3.7188 2.3314-3.7188 4.5938 0 1.7226 0.9366 3.2348 2.3125 4.0625h-1.1562l-11.375 76.031v5.5938h-1.2812v-5.375h-1.1875l-1.8125-9.125c0.34269-0.13789 0.59375-0.46737 0.59375-0.84375 0-0.50185-0.44148-0.90625-0.96875-0.90625s-0.96875 0.4044-0.96875 0.90625c0 0.38262 0.27319 0.70988 0.625 0.84375l-1.8438 9.125h-1.1562v6.5312h0.53125v28.375h-0.75v-3.8125h-1.4062l-2.0938-11.812c0.46893-0.18878 0.8125-0.64126 0.8125-1.1562 0-0.68673-0.59093-1.25-1.3125-1.25-0.72156 0-1.3125 0.56327-1.3125 1.25 0 0.52357 0.33107 0.97298 0.8125 1.1562l-2.0938 11.812h-1.4062v7.75h0.78125v24h-1.75v-4.9375h-1.625l-2.4688-12.281c0.48689-0.19599 0.875-0.65275 0.875-1.1875 0-0.71302-0.62581-1.2812-1.375-1.2812s-1.375 0.56823-1.375 1.2812c0 0.54364 0.37514 0.99717 0.875 1.1875l-2.4688 12.281h-1.625v9.2188h0.875v75h-8.1875v-4.5312h-7.4688v7.4062h-5.9375v-4.125h-7.4375v7h-8.1875v-68.688h0.71875v-7.4375h-1.3125l-2-9.9062c0.40402-0.15383 0.6875-0.52935 0.6875-0.96875 0-0.5763-0.4882-1.0625-1.0938-1.0625-0.60554 0-1.0938 0.4862-1.0938 1.0625 0 0.43222 0.29397 0.81034 0.6875 0.96875l-2 9.9062h-1.3125v4h-1.4062v-19.406h0.625v-6.25h-1.125l-1.7188-9.5625c0.38911-0.14813 0.6875-0.51433 0.6875-0.9375 0-0.55506-0.47929-1-1.0625-1s-1.0625 0.44494-1.0625 1c0 0.41624 0.27723 0.78491 0.65625 0.9375l-1.6875 9.5625h-1.1562v3.0625h-0.59375v-22.938h0.4375v-5.25h-0.96875l-1.4688-7.375c0.28435-0.1082 0.5-0.37825 0.5-0.6875 0-0.40564-0.35507-0.75-0.78125-0.75-0.42617 0-0.78125 0.34436-0.78125 0.75 0 0.30421 0.22302 0.57605 0.5 0.6875l-1.4688 7.375h-0.96875v4.3125h-1.0625v-4.5l-9.1875-61.469h-1c1.0931-0.61844 1.8438-1.7332 1.8438-3.0312 0-1.7043-1.2537-3.1583-2.9375-3.5v-3.3438c0.76071-0.29451 1.2812-0.98275 1.2812-1.8125s-0.52054-1.518-1.2812-1.8125v-3.1562h-1.5625v3.1562c-0.76166 0.29409-1.3125 0.9821-1.3125 1.8125s0.55084 1.5184 1.3125 1.8125v3.3438c-1.6843 0.34134-2.9688 1.7953-2.9688 3.5 0 1.2981 0.75062 2.4128 1.8438 3.0312h-1l-9.1875 61.469v4.5h-1.0625v-4.3125h-0.9375l-1.4688-7.375c0.27699-0.11145 0.46875-0.38329 0.46875-0.6875 0-0.40564-0.35508-0.75-0.78125-0.75s-0.75 0.34436-0.75 0.75c0 0.30925 0.1844 0.5793 0.46875 0.6875l-1.4688 7.375h-0.9375v5.25h0.40625v22.938h-0.59375v-3.0625h-1.125l-1.7188-9.5625c0.37901-0.15259 0.6875-0.52126 0.6875-0.9375 0-0.55506-0.47929-1-1.0625-1s-1.0625 0.44494-1.0625 1c0 0.42317 0.26713 0.78937 0.65625 0.9375l-1.6875 9.5625h-1.125v6.25h0.59375v19.406h-1.4062v-4h-1.3125l-1.9688-9.9062c0.39353-0.15841 0.6875-0.53653 0.6875-0.96875 0-0.5763-0.51946-1.0625-1.125-1.0625s-1.0938 0.4862-1.0938 1.0625c0 0.4394 0.28349 0.81492 0.6875 0.96875l-2 9.9062h-1.2812v7.4375h0.6875v279.88h286.16v-279.88h0.6875v-7.4375h-1.2812l-2-9.9062c0.40402-0.15383 0.6875-0.52935 0.6875-0.96875 0-0.5763-0.4882-1.0625-1.0938-1.0625-0.60554 0-1.0938 0.4862-1.0938 1.0625 0 0.43222 0.29397 0.81034 0.6875 0.96875l-2 9.9062h-1.3125v4h-1.4062v-19.406h0.625v-6.25h-1.1562l-1.6875-9.5625c0.38911-0.14813 0.6875-0.51433 0.6875-0.9375 0-0.55506-0.47929-1-1.0625-1s-1.0625 0.44494-1.0625 1c0 0.41624 0.27723 0.78491 0.65625 0.9375l-1.6875 9.5625h-1.1562v3.0625h-0.59375v-22.938h0.4375v-5.25h-0.96875l-1.4688-7.375c0.28435-0.1082 0.5-0.37825 0.5-0.6875 0-0.40564-0.35507-0.75-0.78125-0.75-0.42617 0-0.78125 0.34436-0.78125 0.75 0 0.30421 0.22302 0.57605 0.5 0.6875l-1.5 7.375h-0.9375v4.3125h-1.0625v-4.5l-9.1875-61.469h-1c1.0931-0.61844 1.8438-1.7332 1.8438-3.0312 0-1.7043-1.2537-3.1583-2.9375-3.5v-3.3438c0.74673-0.30058 1.2812-0.99235 1.2812-1.8125s-0.53452-1.5119-1.2812-1.8125v-3.1562h-1.5625v3.1562c-0.76166 0.29409-1.3125 0.9821-1.3125 1.8125s0.55084 1.5184 1.3125 1.8125v3.3438c-1.6843 0.34134-2.9688 1.7953-2.9688 3.5 0 1.2981 0.75062 2.4128 1.8438 3.0312h-1l-9.1875 61.469v4.5h-1.0625v-4.3125h-0.9375l-1.4688-7.375c0.27699-0.11145 0.46875-0.38329 0.46875-0.6875 0-0.40564-0.35508-0.75-0.78125-0.75s-0.75 0.34436-0.75 0.75c0 0.30925 0.1844 0.5793 0.46875 0.6875l-1.4688 7.375h-0.9375v5.25h0.40625v22.938h-0.59375v-3.0625h-1.125l-1.7188-9.5625c0.37901-0.15259 0.6875-0.52126 0.6875-0.9375 0-0.55506-0.47929-1-1.0625-1s-1.0625 0.44494-1.0625 1c0 0.42317 0.26713 0.78937 0.65625 0.9375l-1.6875 9.5625h-1.1562v6.25h0.625v19.406h-1.4062v-4h-1.3125l-1.9688-9.9062c0.39353-0.15841 0.6875-0.53653 0.6875-0.96875 0-0.5763-0.51946-1.0625-1.125-1.0625s-1.0938 0.4862-1.0938 1.0625c0 0.4394 0.28349 0.81492 0.6875 0.96875l-2 9.9062h-1.2812v7.4375h0.6875v68.688h-8.1562v-7h-7.4688v4.125h-5.9375v-7.4062h-7.4688v4.5312h-8.1875v-75h0.875v-9.2188h-1.625l-2.4375-12.281c0.49987-0.19033 0.84375-0.64386 0.84375-1.1875 0-0.71302-0.6258-1.2812-1.375-1.2812-0.74919 0-1.3438 0.56823-1.3438 1.2812 0 0.53475 0.35687 0.99151 0.84375 1.1875l-2.4688 12.281h-1.5938v4.9375h-1.7812v-24h0.78125v-7.75h-1.4062l-2.0938-11.812c0.48143-0.18327 0.8125-0.63268 0.8125-1.1562 0-0.68673-0.59093-1.25-1.3125-1.25s-1.3125 0.56327-1.3125 1.25c0 0.51499 0.37482 0.96747 0.84375 1.1562l-2.0938 11.812h-1.4062v3.8125h-0.78125v-28.375h0.5625v-6.5312h-1.1875l-1.8125-9.125c0.35181-0.13387 0.59375-0.46113 0.59375-0.84375 0-0.50185-0.44147-0.90625-0.96875-0.90625-0.52727 0-0.96875 0.4044-0.96875 0.90625 0 0.37638 0.28231 0.70586 0.625 0.84375l-1.8438 9.125h-1.1562v5.375h-1.3125v-5.5938l-11.375-76.031h-1.1562c1.3759-0.8277 2.3125-2.3399 2.3125-4.0625 0-2.2623-1.597-4.1262-3.7188-4.5938v-2.6875l1.1562-0.875v-5.25l0.875-0.5625-0.0625-7.2812 2.6562 5.5938s0.33551-0.47319 0.40625-0.71875c0.11338-0.39357-0.09375-1.0938-0.09375-1.0938l-2.1562-6.875-0.34375-0.6875-0.4375-0.3125h-1.7188s0.02008-2.1134-0.1875-3.1562c-0.0707-0.35499-0.3125-1.0625-0.3125-1.0625s-0.23109-0.6041-0.46875-0.78125c-0.29832-0.22237-0.65935-0.20728-1.0312-0.21875-0.35043-0.0108-0.64843-0.01088-0.9375 0.1875-0.16256 0.11156-0.40625 0.46875-0.40625 0.46875l-0.125 0.5-4.6875-4.375-1.1562-1.75zm9.6562 218.16c5.2164 0 9.4375 4.2211 9.4375 9.4375v0.21875 40.844h-18.875v-40.844c-2e-3 -0.07329 0-0.14505 0-0.21875 0-5.2164 4.221-9.4375 9.4375-9.4375zm-117.94 24.25c3.9446 0 7.125 3.2113 7.125 7.1562v0.15625 21.406h-14.281v-21.406-0.15625c0-3.9449 3.2112-7.1562 7.1562-7.1562zm232.62 0c3.9447 0 7.125 3.2113 7.125 7.1562v0.15625 21.406h-14.281v-21.406-0.15625c0-3.9449 3.2112-7.1562 7.1562-7.1562zm-114.69 45.5c5.2164 0 9.4375 4.2211 9.4375 9.4375v0.21875 60.594h-18.875v-60.594c-2e-3 -0.0733 0-0.14505 0-0.21875 0-5.2164 4.221-9.4375 9.4375-9.4375zm-117.94 1.375c3.9446 0 7.125 3.1801 7.125 7.125v0.15625 21.406h-14.281v-21.406-0.15625c0-3.9449 3.2112-7.125 7.1562-7.125zm232.62 0c3.9447 0 7.125 3.1801 7.125 7.125v0.15625 21.406h-14.281v-21.406-0.15625c0-3.9449 3.2112-7.125 7.1562-7.125zm-175.62 3.0625c4.686 0 8.4688 4.1267 8.4688 9.1875s-3.7828 9.1562-8.4688 9.1562-8.5-4.0954-8.5-9.1562 3.814-9.1875 8.5-9.1875zm118.59 0c4.686 0 8.5 4.1267 8.5 9.1875s-3.814 9.1562-8.5 9.1562-8.4688-4.0954-8.4688-9.1562 3.7828-9.1875 8.4688-9.1875zm-175.59 38.125c3.9446 0 7.125 3.1801 7.125 7.125v0.1875 22.531h-14.281v-22.531-0.1875c0-3.9449 3.2112-7.125 7.1562-7.125zm57 0c3.9446 0 7.125 3.1801 7.125 7.125v0.1875 22.531h-14.281v-22.531h0.03125c0-0.05539-0.03125-0.1317-0.03125-0.1875 0-3.9449 3.2112-7.125 7.1562-7.125zm118.59 0c3.9446 0 7.1562 3.1801 7.1562 7.125 0 0.05575-0.03125 0.1321-0.03125 0.1875h0.03125v22.531h-14.281v-22.531-0.1875c0-3.9449 3.18-7.125 7.125-7.125zm57.031 0c3.9447 0 7.125 3.1801 7.125 7.125v0.1875 22.531h-14.281v-22.531-0.1875c0-3.9449 3.2112-7.125 7.1562-7.125zm-232.62 44.812c3.9446 0 7.125 3.1801 7.125 7.125v0.15625 23.781h-14.281v-23.781-0.15625c0-3.9449 3.2112-7.125 7.1562-7.125zm232.62 0c3.9447 0 7.125 3.1801 7.125 7.125v0.15625 23.781h-14.281v-23.781-0.15625c0-3.9449 3.2112-7.125 7.1562-7.125zm-175.62 2.75c4.686 0 8.4688 4.0954 8.4688 9.1562 0 5.0608-3.7828 9.1562-8.4688 9.1562s-8.5-4.0954-8.5-9.1562c0-5.0608 3.814-9.1562 8.5-9.1562zm118.59 0c4.686 0 8.5 4.0954 8.5 9.1562 0 5.0608-3.814 9.1562-8.5 9.1562s-8.4688-4.0954-8.4688-9.1562c0-5.0608 3.7828-9.1562 8.4688-9.1562zm-57.656 2.0312c5.2164 0 9.4375 4.221 9.4375 9.4375v0.21875 60.594h-18.875v-60.594c-2e-3 -0.0733 0-0.14505 0-0.21875 0-5.2165 4.221-9.4375 9.4375-9.4375zm-61.75 31.562c6.1412 0 11.094 4.9525 11.094 11.094 0 0.0415 4.5e-4 0.0836 0 0.125v27.469h-22.219v-27.469c-4.5e-4 -0.0413 0-0.0836 0-0.125 0-6.1412 4.9838-11.094 11.125-11.094zm120.25 0c6.1412 0 11.094 4.9525 11.094 11.094 0 0.0415 4.5e-4 0.0836 0 0.125v27.469h-22.219v-27.469c-4.5e-4 -0.0413 0-0.0836 0-0.125 0-6.1412 4.9838-11.094 11.125-11.094zm-176.44 7.625c3.9446 0 7.125 3.1801 7.125 7.125v0.1875 23.75h-14.281v-23.75-0.1875c0-3.9449 3.2112-7.125 7.1562-7.125zm232.62 0c3.9447 0 7.125 3.1801 7.125 7.125v0.1875 23.75h-14.281v-23.75-0.1875c0-3.9449 3.2112-7.125 7.1562-7.125z"/>
 </g>
</svg>
